<svg width="28" height="28" viewBox="0 0 28 28" fill="none" xmlns="http://www.w3.org/2000/svg">
<path d="M14 0.374786C6.265 0.374786 0 6.57288 0 14.2175C0 20.3349 4.011 25.5225 9.5725 27.3509C10.2725 27.4812 10.5292 27.0532 10.5292 26.6853C10.5292 26.3565 10.5175 25.4856 10.5117 24.332C6.61733 25.1672 5.796 22.4748 5.796 22.4748C5.159 20.8771 4.2385 20.4503 4.2385 20.4503C2.97033 19.592 4.3365 19.6093 4.3365 19.6093C5.74233 19.7062 6.48083 21.0351 6.48083 21.0351C7.72917 23.1519 9.758 22.5405 10.5583 22.1864C10.6843 21.2912 11.0448 20.681 11.445 20.3349C8.33583 19.9888 5.068 18.7983 5.068 13.4943C5.068 11.9831 5.6105 10.7488 6.50883 9.77979C6.35133 9.43026 5.87883 8.02291 6.63133 6.11607C6.63133 6.11607 7.80383 5.74462 10.4813 7.53496C11.6013 7.22695 12.7913 7.07468 13.9813 7.06776C15.1713 7.07468 16.3613 7.22695 17.4813 7.53496C20.1413 5.74462 21.3138 6.11607 21.3138 6.11607C22.0663 8.02291 21.5938 9.43026 21.4538 9.77979C22.3463 10.7488 22.8888 11.9831 22.8888 13.4943C22.8888 18.8122 19.6163 19.9831 16.5013 20.3234C16.9913 20.7386 17.4463 21.5877 17.4463 22.8843C17.4463 24.7369 17.4288 26.225 17.4288 26.6749C17.4288 27.0383 17.6738 27.4708 18.3913 27.3324C23.9925 25.5167 28 20.3257 28 14.2175C28 6.57288 21.7315 0.374786 14 0.374786Z" fill="white"/>
</svg>
