<svg width="22" height="22" viewBox="0 0 22 22" fill="none" xmlns="http://www.w3.org/2000/svg">
<path d="M7.48334 11.1252C7.48334 9.18263 9.05776 7.60744 11.0004 7.60744C12.9431 7.60744 14.5183 9.18263 14.5183 11.1252C14.5183 13.0678 12.9431 14.643 11.0004 14.643C9.05776 14.643 7.48334 13.0678 7.48334 11.1252ZM5.58162 11.1252C5.58162 14.1179 8.00761 16.5438 11.0004 16.5438C13.9932 16.5438 16.4192 14.1179 16.4192 11.1252C16.4192 8.13253 13.9932 5.70664 11.0004 5.70664C8.00761 5.70664 5.58162 8.13253 5.58162 11.1252ZM15.3674 5.49179C15.3671 6.19115 15.9338 6.75832 16.6332 6.7586C17.3326 6.75888 17.8998 6.19216 17.9001 5.4928C17.9004 4.79345 17.3336 4.22628 16.6342 4.226C15.9352 4.22632 15.368 4.79277 15.3674 5.49179ZM6.73704 19.7147C5.70817 19.6678 5.14895 19.4965 4.77732 19.3517C4.28463 19.1599 3.93309 18.9315 3.56348 18.5624C3.19388 18.1933 2.96509 17.8421 2.77413 17.3494C2.62925 16.978 2.45788 16.4186 2.4111 15.3898C2.35994 14.2775 2.34973 13.9433 2.34973 11.1253C2.34973 8.30728 2.36079 7.97408 2.4111 6.86083C2.45796 5.832 2.63061 5.27373 2.77413 4.90119C2.96593 4.40851 3.19438 4.05699 3.56348 3.6874C3.93258 3.31781 4.28378 3.08903 4.77732 2.89807C5.14879 2.75321 5.70817 2.58183 6.73704 2.53507C7.8494 2.48391 8.18355 2.47369 11.0004 2.47369C13.8173 2.47369 14.1518 2.48475 15.2651 2.53507C16.2939 2.58192 16.8522 2.75456 17.2248 2.89807C17.7175 3.08903 18.069 3.31831 18.4386 3.6874C18.8082 4.05648 19.0362 4.40851 19.228 4.90119C19.3729 5.27264 19.5442 5.832 19.591 6.86083C19.6422 7.97408 19.6524 8.30728 19.6524 11.1253C19.6524 13.9433 19.6422 14.2765 19.591 15.3898C19.5441 16.4186 19.3719 16.9778 19.228 17.3494C19.0362 17.8421 18.8077 18.1936 18.4386 18.5624C18.0695 18.9311 17.7175 19.1599 17.2248 19.3517C16.8533 19.4966 16.2939 19.6679 15.2651 19.7147C14.1527 19.7659 13.8186 19.7761 11.0004 19.7761C8.18229 19.7761 7.84907 19.7659 6.73704 19.7147ZM6.64966 0.636629C5.52624 0.687788 4.75858 0.865914 4.08817 1.12677C3.39388 1.39616 2.80612 1.75756 2.21879 2.34394C1.63146 2.93032 1.27097 3.51898 1.00157 4.21325C0.740704 4.88405 0.562571 5.65126 0.511411 6.77464C0.459406 7.89979 0.447502 8.2595 0.447502 11.1252C0.447502 13.9909 0.459406 14.3507 0.511411 15.4758C0.562571 16.5993 0.740704 17.3664 1.00157 18.0372C1.27097 18.731 1.63154 19.3204 2.21879 19.9065C2.80604 20.4926 3.39388 20.8535 4.08817 21.1237C4.75985 21.3845 5.52624 21.5627 6.64966 21.6138C7.77545 21.665 8.13459 21.6777 11.0004 21.6777C13.8663 21.6777 14.226 21.6658 15.3512 21.6138C16.4747 21.5627 17.2418 21.3845 17.9127 21.1237C18.6065 20.8535 19.1947 20.4929 19.7821 19.9065C20.3694 19.3201 20.7291 18.731 20.9993 18.0372C21.2601 17.3664 21.4391 16.5992 21.4894 15.4758C21.5406 14.3498 21.5525 13.9909 21.5525 11.1252C21.5525 8.2595 21.5406 7.89979 21.4894 6.77464C21.4383 5.65118 21.2601 4.88363 20.9993 4.21325C20.7291 3.5194 20.3685 2.93125 19.7821 2.34394C19.1957 1.75663 18.6065 1.39616 17.9135 1.12677C17.2418 0.865914 16.4746 0.686944 15.352 0.636629C14.2268 0.585471 13.8671 0.572723 11.0013 0.572723C8.13543 0.572723 7.77545 0.584627 6.64966 0.636629Z" fill="white"/>
</svg>
