<svg width="22" height="22" viewBox="0 0 22 22" fill="none" xmlns="http://www.w3.org/2000/svg">
<path d="M10.9815 0.575211C5.4317 0.575211 0.880699 4.84796 0.449997 10.2786L6.11518 12.6154C6.59521 12.2892 7.17476 12.0967 7.79924 12.0967C7.85473 12.0967 7.90933 12.1002 7.96482 12.102L10.4847 8.46046V8.40859C10.4847 6.21506 12.271 4.43124 14.4694 4.43124C16.6661 4.43124 18.4541 6.21682 18.4541 8.41122C18.4541 10.6056 16.6661 12.3895 14.4694 12.3895H14.3769L10.7868 14.9487C10.7868 14.9944 10.7904 15.041 10.7904 15.0885C10.7904 16.7369 9.45599 18.0741 7.80452 18.0741C6.36444 18.0741 5.14809 17.0429 4.87064 15.6767L0.81464 14.0001C2.07063 18.4284 6.14337 21.6752 10.9815 21.6752C16.8184 21.6752 21.55 16.9514 21.55 11.1252C21.55 5.29897 16.8176 0.575211 10.9815 0.575211ZM7.07171 16.5848L5.77432 16.0485C6.00509 16.5259 6.4032 16.9268 6.93167 17.1475C8.07404 17.6214 9.39169 17.0807 9.86643 15.9386C10.0981 15.3848 10.099 14.779 9.87084 14.2252C9.64271 13.6713 9.21025 13.2396 8.658 13.0093C8.10839 12.7807 7.52179 12.7904 7.00389 12.9829L8.34532 13.5368C9.18735 13.8884 9.58634 14.8555 9.23403 15.6951C8.88436 16.5365 7.91462 16.9347 7.07171 16.5848ZM17.1258 8.40595C17.1258 6.94477 15.9341 5.75526 14.4703 5.75526C13.0038 5.75526 11.8147 6.94477 11.8147 8.40595C11.8147 9.86976 13.0038 11.0566 14.4703 11.0566C15.935 11.0566 17.1258 9.86976 17.1258 8.40595ZM12.4815 8.40155C12.4815 7.30084 13.3737 6.40936 14.4764 6.40936C15.5765 6.40936 16.4723 7.30084 16.4723 8.40155C16.4723 9.50139 15.5765 10.3929 14.4764 10.3929C13.3728 10.3929 12.4815 9.50139 12.4815 8.40155Z" fill="white"/>
</svg>
