<svg width="26" height="18" viewBox="0 0 26 18" fill="none" xmlns="http://www.w3.org/2000/svg">
<path d="M25.1116 3.01736C24.8113 1.95138 23.9801 1.11535 22.9093 0.819814C20.9378 0.29275 13.0121 0.29275 13.0121 0.29275C13.0121 0.29275 5.10136 0.280107 3.10927 0.819814C2.04408 1.11614 1.20883 1.95138 0.911718 3.01736C0.537953 5.03791 0.352256 7.08295 0.360948 9.13747C0.356997 11.1786 0.541904 13.2204 0.911718 15.2283C1.20883 16.2943 2.04408 17.1304 3.10927 17.4306C5.08082 17.9577 13.0121 17.9577 13.0121 17.9577C13.0121 17.9577 20.918 17.9577 22.9093 17.4306C23.9801 17.1304 24.8113 16.2951 25.1116 15.2283C25.4743 13.2204 25.6513 11.1786 25.6387 9.13747C25.6513 7.08295 25.4783 5.03791 25.1116 3.01736ZM10.4803 12.9202V5.33818L17.0777 9.13747L10.4803 12.9202Z" fill="white"/>
</svg>
